<svg width="32" height="32" viewBox="0 0 32 32" fill="none" xmlns="http://www.w3.org/2000/svg">
  <path d="M16 6C13 6 10 9 10 12C10 14 11 15 10 17C9 19 6 19 6 22C6 25 9 26 11 25C13 24 14 26 16 26C18 26 19 24 21 25C23 26 26 25 26 22C26 19 23 19 22 17C21 15 22 14 22 12C22 9 19 6 16 6Z" fill="#00DC82" />
  <circle cx="13" cy="11" r="1.5" fill="white" />
  <circle cx="19" cy="11" r="1.5" fill="white" />
  <circle cx="10" cy="22" r="1.5" fill="white" />
  <circle cx="22" cy="22" r="1.5" fill="white" />
  <circle cx="16" cy="18" r="1.5" fill="white" />
  <path d="M13 11L16 18M19 11L16 18M10 22L16 18M22 22L16 18" stroke="white" stroke-width="1" />
</svg> 